<svg viewBox="0 0 24 24" fill="none" xmlns="http://www.w3.org/2000/svg"><path fill-rule="evenodd" clip-rule="evenodd" d="M15.149 11.367c.889-.176 1.614-.5 2.104-.99s.814-1.216.99-2.105c.174-.879.179-1.793.131-2.512-.72-.048-1.634-.044-2.513.13-.889.176-1.615.5-2.104.99-.49.49-.814 1.216-.99 2.105-.175.879-.179 1.793-.131 2.513.72.047 1.634.043 2.513-.13zM12.61 13.1c1.608.097 4.214-.03 5.775-1.59 1.588-1.589 1.692-4.26 1.585-5.86a1.579 1.579 0 00-1.485-1.486c-1.6-.106-4.271-.002-5.86 1.586-1.542 1.542-1.685 4.105-1.594 5.718h-.02V18.4H9A.8.8 0 009 20h6.266a.8.8 0 000-1.6H12.61v-5.3zm-4.326-.454c-.026-1.068-.267-2.115-.845-2.693-.578-.578-1.625-.819-2.693-.845.025 1.068.266 2.116.844 2.694.578.578 1.626.819 2.694.844zm1.601.088c-.013-1.186-.248-2.846-1.315-3.913C7.504 7.754 5.843 7.52 4.658 7.505A1.48 1.48 0 003.144 9.02c.013 1.185.248 2.845 1.315 3.912C5.526 14 7.186 14.234 8.37 14.247a1.48 1.48 0 001.514-1.514z" fill="#81848E" data-darkreader-inline-fill="" style="--darkreader-inline-fill: #9d9487;"></path></svg>
