<svg fill="#000000" height="200px" width="200px" version="1.1" id="Layer_1" xmlns="http://www.w3.org/2000/svg" xmlns:xlink="http://www.w3.org/1999/xlink" viewBox="0 0 501.33 501.33" xml:space="preserve" data-darkreader-inline-fill="" style="--darkreader-inline-fill: #000000; --darkreader-inline-stroke: #e8e6e3;" stroke="#000000" stroke-width="0.005013330000000001" data-darkreader-inline-stroke=""><g id="SVGRepo_bgCarrier" stroke-width="0"></g><g id="SVGRepo_tracerCarrier" stroke-linecap="round" stroke-linejoin="round"></g><g id="SVGRepo_iconCarrier"> <g> <g> <path d="M250.667,0C112,0,0,112,0,250.667s112,250.667,250.667,250.667s250.667-112,250.667-250.667S389.333,0,250.667,0z M272,458.667v-6.4c0-11.733-9.6-21.333-21.333-21.333c-11.733,0-21.333,9.6-21.333,21.333v6.4 C131.2,449.067,52.267,370.133,42.667,272h6.4C60.8,272,70.4,262.4,70.4,250.667s-9.6-21.333-21.333-21.333h-6.4 C52.267,131.2,131.2,52.267,229.333,42.667V48c0,11.733,9.6,21.333,21.333,21.333C262.4,69.333,272,60.8,272,49.067v-6.4 c98.133,9.6,177.067,88.533,186.667,186.667h-6.4c-11.733,0-21.333,9.6-21.333,21.333S440.533,272,452.267,272h6.4 C449.067,370.133,370.134,449.067,272,458.667z"></path> </g> </g> <g> <g> <path d="M382.933,118.4c-6.4-6.4-14.933-8.534-23.466-4.267l-160,76.8c-4.267,2.133-7.467,5.333-9.6,9.6l-76.8,160 c-3.2,7.467-2.133,17.067,4.267,23.467c4.267,4.267,9.6,6.4,14.933,6.4c3.2,0,6.4-1.067,8.533-2.133l160-76.8 c4.267-2.133,7.467-5.333,9.6-9.6l76.8-160C390.4,134.4,389.333,124.8,382.933,118.4z M177.067,325.333l38.4-80l41.6,41.6 L177.067,325.333z M286.933,257.067l-41.6-41.6l80-38.4L286.933,257.067z"></path> </g> </g> </g></svg>
