<svg  fill="none" xmlns="http://www.w3.org/2000/svg"><path fill-rule="evenodd" clip-rule="evenodd" d="M11.034 3.098c.363-.85 1.57-.85 1.932 0l2.144 5.03 5.487.463c.927.078 1.302 1.235.597 1.842l-4.163 3.585 1.25 5.327c.213.904-.766 1.618-1.562 1.14L12 17.654l-4.719 2.831c-.796.478-1.774-.236-1.562-1.14l1.25-5.327-4.163-3.585c-.705-.607-.33-1.764.597-1.842l5.487-.463 2.144-5.03zM12 5.168l-1.7 3.987a1.05 1.05 0 01-.878.634l-4.334.366 3.289 2.832c.296.255.426.654.337 1.035l-.99 4.214 3.736-2.24c.332-.2.748-.2 1.08 0l3.735 2.24-.989-4.214c-.09-.38.04-.78.337-1.035l3.289-2.832-4.334-.366a1.05 1.05 0 01-.878-.634L12 5.167z" fill="currentColor" data-darkreader-inline-fill="" style="--darkreader-inline-fill: currentColor;"></path></svg>
