
<svg width="60" height="15" viewBox="0 0 60 15" fill="none" xmlns="http://www.w3.org/2000/svg">
<path d="M5.4797 2.07829C3.87218 2.07829 2.6154 3.01357 2.6154 4.35804C2.6154 5.70251 3.66759 6.14092 4.98283 6.40397L6.6488 6.66701C8.84087 7.01774 10.3607 8.04071 10.3607 10.4374C10.3607 12.9509 8.31477 14.4123 5.68429 14.4123C3.31686 14.4123 1.09556 13.0094 0.774061 10.2912C0.744833 10.0574 0.9202 9.85282 1.15402 9.85282H2.14776C2.32312 9.85282 2.49849 9.99895 2.52771 10.1743C2.73231 12.1033 4.22291 12.8633 5.68429 12.8633C7.29181 12.8633 8.54859 12.0741 8.54859 10.4666C8.54859 9.03445 7.52563 8.53758 6.18116 8.27453L4.54442 7.98225C2.26467 7.6023 0.832517 6.49165 0.832517 4.41649C0.832517 1.99061 2.9369 0.5 5.4797 0.5C7.4964 0.5 9.74692 1.63987 10.1853 4.35804C10.2146 4.59186 10.0392 4.79645 9.80538 4.79645H8.75319C8.57782 4.79645 8.40245 4.65031 8.37323 4.47495C8.08095 2.75052 6.76571 2.07829 5.4797 2.07829Z" fill="#101010"/>
<path d="M16.9077 3.56891C19.3628 3.56891 21.0873 4.88415 21.701 7.01776C21.7595 7.25158 21.5841 7.51463 21.3211 7.51463H20.1812C20.0058 7.51463 19.8889 7.39772 19.8305 7.25158C19.3921 6.02402 18.4275 5.35179 16.9077 5.35179C14.8618 5.35179 13.7219 7.01776 13.7219 9.03446C13.7219 11.0219 14.8618 12.7171 16.9077 12.7171C18.3983 12.7171 19.3921 12.0157 19.8305 10.8173C19.8889 10.6712 20.0351 10.5543 20.1812 10.5543H21.3211C21.5841 10.5543 21.7595 10.7881 21.6718 11.0512C21.0288 13.2725 19.3336 14.5 16.8785 14.5C13.7219 14.5 11.7344 12.0741 11.7344 9.06369C11.7637 6.02402 13.7804 3.56891 16.9077 3.56891Z" fill="#101010"/>
<path d="M23.5716 12.6878H26.0267V5.84857H23.8347C23.6301 5.84857 23.4547 5.6732 23.4547 5.46861V4.5041C23.4547 4.29951 23.6301 4.12414 23.8347 4.12414H26.8159C27.4296 4.12414 27.9557 4.65024 27.9557 5.26401V5.52706C28.5111 4.21182 29.6802 3.89032 31.4923 3.89032C32.1937 3.89032 32.6614 4.00723 32.9244 4.09491C33.0706 4.15337 33.1582 4.29951 33.1582 4.44564V5.46861C33.1582 5.73166 32.9244 5.90702 32.6614 5.81934C32.3399 5.70243 31.8722 5.61475 31.2877 5.61475C29.3587 5.61475 27.985 6.92999 27.985 9.23896V12.6878H31.1415C31.3461 12.6878 31.5215 12.8632 31.5215 13.0678V14.0323C31.5215 14.2369 31.3461 14.4122 31.1415 14.4122H23.5716C23.367 14.4122 23.1917 14.2369 23.1917 14.0323V13.0678C23.1917 12.8632 23.367 12.6878 23.5716 12.6878Z" fill="#101010"/>
<path d="M34.6196 9.00523C34.6196 6.02402 36.6071 3.56891 39.8221 3.56891C43.0372 3.56891 45.0246 5.9948 45.0246 9.00523C45.0246 11.9864 43.0372 14.4416 39.8221 14.4416C36.5779 14.4123 34.6196 11.9864 34.6196 9.00523ZM39.7929 12.6587C41.8681 12.6587 43.0372 10.9927 43.0372 8.97601C43.0372 6.98853 41.8388 5.29334 39.7929 5.29334C37.7177 5.29334 36.5486 6.95931 36.5486 8.97601C36.5486 10.9927 37.747 12.6587 39.7929 12.6587Z" fill="#101010"/>
<path d="M49.2917 12.7756H52.2729C52.4775 12.7756 52.6529 12.9509 52.6529 13.1555V14.0616C52.6529 14.2662 52.4775 14.4415 52.2729 14.4415H47.8304C47.6258 14.4415 47.4504 14.2662 47.4504 14.0616V2.31209H45.9598C45.7552 2.31209 45.5798 2.13672 45.5798 1.93213V1.02608C45.5798 0.821483 45.7552 0.646118 45.9598 0.646118H48.1519C48.7656 0.646118 49.2917 1.17221 49.2917 1.78599V12.7756Z" fill="#101010"/>
<path d="M55.868 12.7756H58.8492C59.0538 12.7756 59.2291 12.9509 59.2291 13.1555V14.0616C59.2291 14.2662 59.0538 14.4415 58.8492 14.4415H54.4066C54.202 14.4415 54.0266 14.2662 54.0266 14.0616V2.31209H52.536C52.3314 2.31209 52.1561 2.13672 52.1561 1.93213V1.02608C52.1561 0.821483 52.3314 0.646118 52.536 0.646118H54.7281C55.3419 0.646118 55.868 1.17221 55.868 1.78599V12.7756Z" fill="#101010"/>
</svg>
