<svg viewBox="0 0 514 366" fill="none" xmlns="http://www.w3.org/2000/svg"><g clip-path="url(#clip0_62_189)"><path d="M228.942 38.6791C230.577 40.5462 230.815 42.619 231.684 44.3754C232.505 46.0289 232.687 47.9909 234.133 49.8185C234.765 48.6871 235.31 47.896 235.689 47.0257C239.268 38.7899 242.807 30.5462 246.37 22.3103C249.072 16.0444 251.758 9.76274 254.507 3.51269C255.045 2.28641 255.44 0.925641 256.396 0C257.494 0.166141 257.683 0.965198 257.944 1.62976C262.921 14.3435 267.883 27.073 272.852 39.7867C273.911 42.4925 274.985 45.1982 276.083 47.896C276.304 48.434 276.668 48.9166 277.189 49.7868C279.235 46.1634 280.049 42.4608 281.819 38.7582C282.751 39.8421 282.877 40.8073 283.083 41.7013C284.615 48.6159 286.124 55.5305 287.649 62.4452C290.564 75.6652 293.487 88.8774 296.403 102.097C298.528 111.726 300.629 121.37 302.77 130.99C303.221 133 303.284 134.962 302.873 136.995C298.694 157.573 294.522 178.158 290.391 198.744C287.507 213.135 284.702 227.534 281.827 241.925C278.374 259.164 274.874 276.395 271.422 293.634C269.313 304.18 267.243 314.726 265.157 325.272C262.755 337.432 260.362 349.592 257.952 361.744C257.731 362.851 257.415 363.935 257.17 364.964C256.08 365.146 256.008 364.449 255.882 363.864C254.484 357.305 253.07 350.755 251.711 344.188C247.895 325.731 244.119 307.273 240.311 288.816C236.724 271.474 233.09 254.14 229.511 236.79C225.553 217.597 221.65 198.388 217.692 179.187C214.753 164.938 211.791 150.698 208.773 136.465C208.417 134.795 208.449 133.245 208.804 131.607C210.519 123.696 212.17 115.768 213.876 107.857C217.874 89.3125 221.887 70.768 225.885 52.2236C226.604 48.8849 227.283 45.5384 228.01 42.2076C228.239 41.1396 228.571 40.0953 228.958 38.6475L228.942 38.6791Z" fill="#DECFB1"></path><path d="M514 193.427C511.63 196.489 509.181 198.309 506.969 200.334C491.587 214.408 476.134 228.412 460.728 242.455C449.708 252.502 438.726 262.589 427.713 272.637C413.611 285.493 399.485 298.317 385.391 311.181C374.473 321.15 363.579 331.15 352.668 341.126C349.777 343.769 346.893 346.427 343.939 348.99C343.006 349.797 341.908 350.549 340.755 350.96C327.087 355.865 313.396 360.699 299.705 365.541C299.144 365.739 298.544 365.81 297.912 365.945C297.667 364.536 298.559 363.903 299.128 363.16C303.347 357.638 307.597 352.131 311.84 346.633C329.663 323.507 347.486 300.382 365.309 277.257C380.28 257.834 395.259 238.428 410.19 218.973C411.415 217.375 412.782 216.465 414.788 216.022C424.529 213.878 434.231 211.576 443.94 209.313C459.314 205.737 474.688 202.138 490.062 198.562C497.196 196.9 504.322 195.255 511.464 193.617C512.057 193.483 512.689 193.522 514 193.435V193.427Z" fill="#DECFB1"></path><path d="M0.323999 197.28C2.03046 197.62 3.75272 197.897 5.44338 198.301C22.0419 202.209 38.6324 206.149 55.2388 210.065C69.4988 213.428 83.7509 216.79 98.0267 220.057C100.128 220.54 101.606 221.513 102.949 223.206C114.554 237.89 126.231 252.51 137.892 267.146C153.258 286.435 168.616 305.723 183.982 325.011C194.221 337.867 204.451 350.731 214.682 363.603C215.14 364.18 215.52 364.821 216.239 365.881C215.069 365.699 214.35 365.707 213.718 365.47C204.854 362.131 196.006 358.753 187.15 355.383C182.425 353.587 177.725 351.752 172.985 349.995C171.294 349.37 169.872 348.445 168.521 347.242C157.848 337.756 147.111 328.342 136.414 318.887C121.269 305.493 106.148 292.067 91.0034 278.681C79.3584 268.388 67.6739 258.135 56.021 247.842C46.3589 239.306 36.7285 230.738 27.0743 222.201C18.7474 214.836 10.3969 207.486 2.06996 200.113C1.33523 199.464 0.687412 198.728 -0.0078125 198.04C0.102791 197.787 0.205495 197.541 0.316099 197.288L0.323999 197.28Z" fill="#DECFB1"></path><path d="M227.915 365.905C226.904 364.631 225.877 363.381 224.889 362.092C209.342 341.822 193.81 321.553 178.262 301.284C157.721 274.496 137.188 247.692 116.608 220.927C114.886 218.688 113.59 216.339 112.816 213.601C109.411 201.552 105.903 189.535 102.419 177.509C97.924 161.963 93.4208 146.417 88.9177 130.871C88.0407 127.833 87.1559 124.795 86.3027 121.757C86.1684 121.29 86.1526 120.792 86.0894 120.365C86.9426 119.732 87.3613 120.349 87.7405 120.745C89.921 123.031 92.0778 125.341 94.2266 127.659C105.935 140.246 117.643 152.833 129.359 165.421C129.691 165.777 130.118 166.03 130.449 166.299C131.453 165.967 131.168 165.262 131.121 164.685C130.702 160.152 130.252 155.618 129.825 151.085C129.77 150.476 129.825 149.851 129.825 149.186C131.129 149.004 131.753 149.898 132.432 150.547C136.564 154.455 140.657 158.411 144.757 162.351C146.305 163.838 147.767 165.429 149.402 166.821C150.761 167.976 151.306 169.329 151.48 171.069C152.057 176.734 152.728 182.383 153.463 188.032C153.676 189.638 154.063 191.283 154.695 192.771C161.363 208.34 168.071 223.894 174.833 239.424C180.79 253.103 186.857 266.735 192.854 280.39C200.327 297.4 207.856 314.393 215.227 331.451C219.288 340.849 223.088 350.359 226.951 359.845C227.702 361.688 228.444 363.579 227.923 365.905H227.915Z" fill="#DECFB1"></path><path d="M381.591 148.459C381.615 154.938 380.059 160.492 380.264 166.552C380.959 166.172 381.441 166.038 381.741 165.721C389.081 157.873 396.396 150.009 403.72 142.145C409.922 135.484 416.116 128.814 422.333 122.161C423.076 121.362 423.826 120.515 425.311 119.78C425.043 121.212 424.94 122.177 424.671 123.102C421.954 132.588 419.22 142.066 416.479 151.536C412.963 163.68 409.44 175.824 405.916 187.976C403.278 197.09 400.584 206.181 398.04 215.318C397.471 217.367 396.302 218.95 395.077 220.548C387.398 230.595 379.687 240.611 371.992 250.643C357.993 268.903 343.994 287.17 329.995 305.43C315.142 324.797 300.29 344.157 285.437 363.516C284.773 364.378 284.031 365.185 283.328 366.008C282.419 365.343 282.79 364.726 282.988 364.188C284.686 359.56 286.203 354.853 288.155 350.335C297.769 328.041 307.487 305.794 317.196 283.539C326.25 262.795 335.359 242.083 344.413 221.339C348.41 212.185 352.258 202.969 356.287 193.823C357.432 191.22 357.93 188.538 358.222 185.761C358.752 180.729 359.384 175.706 359.858 170.674C360 169.147 360.727 168.087 361.754 167.106C365.419 163.625 369.093 160.144 372.751 156.655C374.671 154.819 376.551 152.944 378.479 151.117C379.277 150.357 380.153 149.693 381.599 148.474L381.591 148.459Z" fill="#DECFB1"></path><path d="M242.365 364.647C241.812 363.555 241.203 362.479 240.721 361.356C233.256 343.927 225.814 326.49 218.348 309.061C210.037 289.662 201.694 270.271 193.383 250.872C188.256 238.91 183.16 226.924 178.049 214.954C174.525 206.703 171.009 198.451 167.446 190.215C166.538 188.111 165.906 185.967 165.661 183.672C164.555 173.49 163.378 163.308 162.216 153.126C161.142 143.696 160.06 134.273 158.977 124.851C157.516 112.161 156.038 99.4708 154.577 86.7729C154.071 82.3741 153.566 77.9753 153.092 73.5766C153.044 73.1256 153.155 72.6588 153.194 72.1841C154.561 72.105 154.743 73.1573 155.169 73.8376C158.772 79.6367 162.343 85.4517 165.898 91.2824C175.054 106.283 184.171 121.298 193.367 136.275C194.781 138.577 195.793 140.958 196.346 143.593C198.392 153.372 200.485 163.142 202.555 172.913C205.992 189.116 209.413 205.318 212.849 221.521C215.606 234.511 218.372 247.502 221.121 260.493C224.439 276.205 227.71 291.917 231.044 307.629C234.828 325.446 238.652 343.247 242.452 361.055C242.689 362.155 242.831 363.271 243.02 364.378C242.807 364.473 242.586 364.56 242.373 364.655L242.365 364.647Z" fill="#DECFB1"></path><path d="M358.278 72.4293C357.969 75.4436 357.701 78.4579 357.353 81.4642C356.698 87.2475 355.979 93.0229 355.323 98.8061C354.177 108.862 353.048 118.925 351.91 128.988C350.693 139.677 349.477 150.373 348.26 161.061C347.367 168.862 346.514 176.663 345.542 184.448C345.345 186.054 344.902 187.684 344.278 189.179C340.723 197.699 337.081 206.181 333.455 214.669C327.538 228.507 321.612 242.344 315.687 256.181C310.56 268.159 305.433 280.137 300.313 292.115C293.456 308.167 286.598 324.219 279.733 340.264C276.502 347.827 273.263 355.383 270 362.93C269.66 363.714 269.155 364.418 268.278 365.035C268.317 364.378 268.278 363.706 268.404 363.073C271.382 349.085 274.408 335.114 277.379 321.126C281.708 300.707 285.966 280.271 290.296 259.86C293.811 243.277 297.406 226.703 300.929 210.12C303.718 197.003 306.436 183.87 309.225 170.753C311.255 161.22 313.364 151.71 315.387 142.177C315.735 140.531 316.367 139.075 317.236 137.651C329.126 118.237 340.992 98.8062 352.866 79.3756C354.051 77.4294 355.204 75.4673 356.413 73.5369C356.721 73.0464 357.148 72.635 357.527 72.1841C357.78 72.2711 358.033 72.3581 358.278 72.4452V72.4293Z" fill="#DECFB1"></path></g><defs><clipPath id="clip0_62_189"><rect width="514" height="366" fill="white"></rect></clipPath></defs></svg>
